<svg xmlns="http://www.w3.org/2000/svg" viewBox="0 0 1200 900" role="img" aria-labelledby="title desc">
  <title id="title">Water+ Club bottles and waiting list visual</title>
  <desc id="desc">A clean illustrated hero image showing reusable water bottles, a delivery crate, droplets, and fresh water waves.</desc>
  <defs>
    <linearGradient id="water" x1="0" x2="1" y1="0" y2="1">
      <stop offset="0" stop-color="#99e6ff"/>
      <stop offset=".55" stop-color="#18aee2"/>
      <stop offset="1" stop-color="#0876b0"/>
    </linearGradient>
    <linearGradient id="mint" x1="0" x2="1" y1="0" y2="1">
      <stop offset="0" stop-color="#dff7ef"/>
      <stop offset="1" stop-color="#6dd8bc"/>
    </linearGradient>
    <filter id="softShadow" x="-20%" y="-20%" width="140%" height="150%">
      <feDropShadow dx="0" dy="24" stdDeviation="22" flood-color="#10212a" flood-opacity=".18"/>
    </filter>
  </defs>
  <rect width="1200" height="900" fill="none"/>
  <g opacity=".55">
    <path fill="#dff7ef" d="M982 154c76 54 93 155 38 226s-167 86-249 31-134-159-80-230 215-81 291-27Z"/>
    <path fill="#d8f4ff" d="M1036 548c95 76 67 217-64 249-131 31-289-58-295-166-6-108 264-159 359-83Z"/>
  </g>
  <g filter="url(#softShadow)">
    <path fill="#fffaf1" d="M349 638h575c47 0 84 38 84 84v33H265v-33c0-46 38-84 84-84Z"/>
    <path fill="#f1c97d" d="M292 546h696l-59 188H351l-59-188Z"/>
    <path fill="#d6a655" d="M351 734h578v40c0 18-14 32-32 32H383c-18 0-32-14-32-32v-40Z"/>
    <path fill="#986b33" d="M361 580h142l24 102H388l-27-102Zm189 0h176l-9 102H559l-9-102Zm223 0h145l-32 102H758l15-102Z" opacity=".28"/>
  </g>
  <g filter="url(#softShadow)">
    <g transform="translate(446 128)">
      <path fill="#dbe7e9" d="M100 0h126v54H100z"/>
      <path fill="#10212a" d="M82 42h162c12 0 22 10 22 22v56H60V64c0-12 10-22 22-22Z"/>
      <path fill="#ffffff" d="M42 104h244c29 0 52 23 52 52v492c0 44-36 80-80 80H70c-44 0-80-36-80-80V156c0-29 23-52 52-52Z"/>
      <path fill="url(#water)" d="M19 373c50-36 92 19 145 0s88-55 145-14v286c0 28-23 51-51 51H70c-28 0-51-23-51-51V373Z"/>
      <path fill="#ffffff" d="M80 206h172c18 0 32 14 32 32v128c0 18-14 32-32 32H80c-18 0-32-14-32-32V238c0-18 14-32 32-32Z"/>
      <text x="166" y="282" text-anchor="middle" font-family="Inter, Arial, sans-serif" font-size="36" font-weight="800" fill="#0d8fd0">WATER+</text>
      <text x="166" y="325" text-anchor="middle" font-family="Inter, Arial, sans-serif" font-size="36" font-weight="800" fill="#168a6f">CLUB</text>
      <path fill="#ffffff" fill-opacity=".38" d="M252 436c22 0 40 18 40 40v128c0 22-18 40-40 40s-40-18-40-40V476c0-22 18-40 40-40Z"/>
    </g>
    <g transform="translate(724 261) rotate(8)">
      <path fill="#10212a" d="M72 0h82v78H72z"/>
      <path fill="#ffffff" d="M51 60h125c24 0 44 20 44 44v410c0 35-29 64-64 64H71c-35 0-64-29-64-64V104c0-24 20-44 44-44Z"/>
      <path fill="url(#mint)" d="M29 317c29-28 64 14 92-5s54-35 76-4v205c0 22-18 40-40 40H69c-22 0-40-18-40-40V317Z"/>
      <path fill="#ffffff" d="M55 166h116c13 0 24 11 24 24v83c0 13-11 24-24 24H55c-13 0-24-11-24-24v-83c0-13 11-24 24-24Z"/>
      <circle cx="113" cy="231" r="30" fill="#0d8fd0" opacity=".2"/>
      <path fill="#0d8fd0" d="M113 190 91 229a25 25 0 1 0 44 0l-22-39Z"/>
    </g>
    <g transform="translate(300 312) rotate(-10)">
      <path fill="#10212a" d="M72 0h82v78H72z"/>
      <path fill="#ffffff" d="M51 60h125c24 0 44 20 44 44v410c0 35-29 64-64 64H71c-35 0-64-29-64-64V104c0-24 20-44 44-44Z"/>
      <path fill="#d8f4ff" d="M29 330c36-22 63 17 96 0 33-18 50-31 72-4v187c0 22-18 40-40 40H69c-22 0-40-18-40-40V330Z"/>
      <rect x="31" y="164" width="164" height="130" rx="24" fill="#fff"/>
      <path fill="#168a6f" d="M76 224h74v18H76z"/>
    </g>
  </g>
  <g fill="#0d8fd0" opacity=".32">
    <circle cx="253" cy="220" r="19"/>
    <circle cx="1004" cy="348" r="16"/>
    <circle cx="244" cy="463" r="10"/>
    <circle cx="960" cy="205" r="9"/>
  </g>
</svg>
